<?xml version="1.0" encoding="UTF-8" standalone="no"?>
<!-- Created with Inkscape (http://www.inkscape.org/) by Jose Miguel Urdaneta (http://Ch3.com.ve -->

<svg
   xmlns:dc="http://purl.org/dc/elements/1.1/"
   xmlns:cc="http://creativecommons.org/ns#"
   xmlns:rdf="http://www.w3.org/1999/02/22-rdf-syntax-ns#"
   xmlns:svg="http://www.w3.org/2000/svg"
   xmlns="http://www.w3.org/2000/svg"
   xmlns:sodipodi="http://sodipodi.sourceforge.net/DTD/sodipodi-0.dtd"
   xmlns:inkscape="http://www.inkscape.org/namespaces/inkscape"
   width="230"
   height="230.36"
   id="svg4667"
   version="1.1"
   inkscape:version="0.48.2 r9819"
   sodipodi:docname="mail.svg">
  <defs
     id="defs4669" />
  <sodipodi:namedview
     id="base"
     pagecolor="#ffffff"
     bordercolor="#666666"
     borderopacity="1.0"
     inkscape:pageopacity="0.0"
     inkscape:pageshadow="2"
     inkscape:zoom="1.8182784"
     inkscape:cx="76.430648"
     inkscape:cy="94.2449"
     inkscape:document-units="px"
     inkscape:current-layer="layer1"
     showgrid="false"
     inkscape:window-width="1366"
     inkscape:window-height="746"
     inkscape:window-x="-8"
     inkscape:window-y="-8"
     inkscape:window-maximized="1" />
  <metadata
     id="metadata4672">
    <rdf:RDF>
      <cc:Work
         rdf:about="">
        <dc:format>image/svg+xml</dc:format>
        <dc:type
           rdf:resource="http://purl.org/dc/dcmitype/StillImage" />
        <dc:title></dc:title>
      </cc:Work>
    </rdf:RDF>
  </metadata>
  <g
     inkscape:label="Capa 1"
     inkscape:groupmode="layer"
     id="layer1"
     transform="translate(0,-822.00218)">
    <rect
       style="color:#000000;fill:#3b3b3b;fill-opacity:1;fill-rule:nonzero;stroke:none;stroke-width:3;marker:none;visibility:visible;display:inline;overflow:visible;enable-background:accumulate"
       id="rect4336-5"
       width="230.29478"
       height="230.14426"
       x="0.11626182"
       y="822.02649"
       ry="115.07213" />
    <path
       style="fill:#ff4c1b;fill-opacity:1;stroke:none"
       inkscape:connector-curvature="0"
       d="m 194.35719,939.21093 c -7.58041,-1.37695 -15.4701,-2.28355 -21.87653,-2.52894 l -1.12979,-0.0409 c 0.25877,-0.61348 0.45444,-1.02931 0.51755,-1.09066 0.13886,-0.12269 0.25247,-0.64075 0.26509,-1.14517 0,-0.27948 0.11362,-1.18608 0.29035,-2.38579 1.73573,0.0681 4.03953,0.1227 6.55159,0.14314 9.70116,0.0818 19.85046,0.92705 26.81232,2.25628 4.14683,0.79072 5.51647,0.76346 2.45527,-0.0409 -3.09908,-0.81116 -12.28898,-2.00405 -19.61061,-2.52212 -4.91685,-0.36128 -11.96707,-0.4976 -16.1202,-0.42262 0.11992,-0.77709 0.25878,-1.64279 0.40395,-2.52895 0.58698,-3.42872 0.78265,-6.8779 0.79528,-13.74217 0.0126,-10.64747 -0.51757,-13.57858 -3.73024,-20.62008 -1.30654,-2.87659 -2.78349,-5.31691 -4.56971,-7.52548 1.55899,-4.96927 1.52112,-12.66516 -0.0947,-19.41355 -1.33179,-5.53505 -1.79885,-5.88951 -6.4443,-4.82613 -3.93853,0.90661 -7.09441,2.1404 -11.14024,4.34215 -1.91247,1.04293 -4.55077,2.66528 -6.46323,3.93997 -4.98628,-1.895 -10.14298,-3.14925 -15.64683,-3.82409 -5.57958,-0.68165 -19.25716,-0.29992 -24.11089,0.66802 -4.746431,0.94751 -9.019485,2.10632 -12.888575,3.48327 -1.931402,-1.28834 -4.733823,-3.02655 -6.734642,-4.11721 -4.064768,-2.20856 -7.220647,-3.43554 -11.171798,-4.34214 -4.632824,-1.07021 -5.112515,-0.70892 -6.437983,4.82612 -1.641066,6.837 -1.653683,14.66242 -0.03165,19.61805 0.189346,0.56577 0.302963,0.96795 0.347145,1.28151 -6.576843,8.94332 -8.722835,18.95003 -7.296385,32.91716 0.372388,3.64004 0.946766,6.98015 1.74836,10.04078 -4.197315,-0.0272 -10.168241,0.13633 -14.479163,0.43625 -7.334246,0.52488 -16.524158,1.70414 -19.623227,2.51532 -3.054887,0.80435 -1.69786,0.83161 2.455271,0.0477 6.961855,-1.32241 17.11746,-2.18129 26.812314,-2.25628 1.830411,-0.007 3.540893,-0.0477 5.011534,-0.0886 0.441822,1.61553 0.946757,3.15607 1.521126,4.62163 l -0.04416,0.007 c -6.406427,0.23858 -14.289799,1.14518 -21.870217,2.52212 -5.686885,1.02931 -14.08151,3.0879 -15.05983,3.68095 -1.028817,0.62029 -0.189354,0.48396 4.216248,-0.72257 8.034857,-2.19493 18.4808,-3.87861 31.419897,-5.05106 l 1.445388,-0.13633 c 2.777169,6.96652 7.056526,12.28343 13.103191,16.4279 3.698683,2.54257 9.625419,5.15331 12.610873,5.5623 0.820533,0.10907 3.206366,0.64077 5.301871,1.17245 2.101809,0.53169 6.21076,1.32923 9.126782,1.78594 h 0.0694 c -0.0567,0.0409 -0.1073,0.0681 -0.15779,0.10906 -3.534582,1.98363 -5.832061,5.07152 -7.378431,9.93173 -0.694299,0.22495 -1.559005,0.53169 -2.493145,0.87934 -3.338912,1.22698 -4.639128,1.47919 -8.022222,1.50646 -3.509347,0.0273 -4.342497,-0.13634 -6.437993,-1.19972 -3.048575,-1.53373 -5.888857,-4.35578 -7.78239,-7.72316 -3.162183,-5.63047 -8.628157,-9.61135 -13.185233,-9.61135 -3.894361,0 -4.632833,1.70414 -1.817795,4.1922 4.241497,3.74228 7.410002,7.55955 8.710218,10.47704 0.732159,1.63597 1.855654,4.16492 2.505762,5.61685 0.687986,1.54735 2.158618,3.64684 3.559824,5.09878 3.294739,3.39464 6.475861,5.01698 11.222293,5.78044 3.181131,0.50437 3.963777,0.50437 7.719278,-0.0137 1.811463,-0.23858 3.338912,-0.51806 4.708562,-0.86571 0,1.66325 0,3.57865 0,5.82825 0,12.03789 -0.132547,15.90969 -0.574369,17.04129 -0.833159,2.1541 -2.701431,4.3695 -4.519217,5.3646 -1.811472,0.9953 -2.373215,2.0928 -1.6095,3.1016 0.422892,0.5453 1.237112,0.6407 3.97009,0.4498 5.188254,-0.3476 8.855391,-2.4198 10.723668,-6.0734 0.59961,-1.1725 0.73847,-3.5311 0.92782,-15.80089 0.20198,-13.3127 0.29034,-14.59421 1.09193,-16.49604 0.48601,-1.13154 1.18662,-2.35853 1.57794,-2.69254 0.65643,-0.58622 0.70061,0.57259 0.70061,16.49608 -0.006,17.57309 -0.17042,19.69299 -1.79886,23.07399 -0.36607,0.7703 -1.06037,1.7723 -1.54637,2.2495 -0.85209,0.8384 -1.211846,2.9856 -0.61856,3.6332 0.97833,1.0498 5.88256,-0.5998 8.55874,-2.8765 4.55709,-3.8991 5.0999,-7.1233 5.13777,-30.40869 l 0.019,-13.6604 1.38227,0.14315 1.38227,0.13633 0.22721,17.86622 c 0.25879,20.11559 0.29666,20.40869 3.46516,24.29419 1.79885,2.1949 3.61032,3.4083 6.55791,4.3558 3.94484,1.2815 5.13146,-0.6953 2.48051,-4.1241 -2.88446,-3.7286 -3.02332,-5.1533 -2.86552,-27.22529 0.10729,-14.15116 0.10729,-14.15116 0.95306,-13.32635 1.77992,1.74504 2.12076,4.60799 2.12076,17.87975 0,16.48259 0.43551,18.05029 5.82574,20.92699 2.51839,1.3291 3.2253,1.4927 6.45061,1.5064 3.43358,0.013 3.64188,-0.041 3.76811,-1.0089 0.1073,-0.7839 -0.31559,-1.3155 -1.91878,-2.3721 -2.1018,-1.3974 -3.55982,-3.1833 -4.47502,-5.4328 -0.34715,-0.8658 -0.58068,-6.5372 -0.73848,-18.21389 -0.22723,-16.31201 -0.27772,-17.05501 -1.21816,-19.61122 -1.26867,-3.43554 -3.20637,-6.14853 -5.66164,-7.9481 -0.63749,-0.4499 -1.27498,-0.82481 -2.10182,-1.10428 1.0162,-0.10907 2.00083,-0.22495 2.95391,-0.37491 9.92207,-1.42467 15.16713,-2.61075 19.37706,-4.36941 8.90588,-3.70139 14.92729,-9.84994 18.19047,-18.5683 0.29034,-0.77709 0.58068,-1.51328 0.82684,-2.10632 l 2.51207,0.22495 c 12.9454,1.17926 23.39135,2.86294 31.4262,5.06469 4.40561,1.20653 5.24506,1.34969 4.21625,0.71574 -0.95938,-0.57941 -9.35402,-2.63119 -15.03459,-3.66048 z m -37.95886,-0.21131 c -1.47063,3.49007 -5.57328,7.97537 -8.88694,9.73404 -3.2695,1.74503 -8.39464,3.07426 -14.20144,3.70821 -3.97009,0.43626 -26.11172,0.56577 -29.76621,0.17723 -12.099628,-1.28151 -18.878443,-3.79682 -23.877351,-8.83426 -4.733805,-4.78522 -6.942927,-11.28141 -6.557913,-19.27721 0.246163,-5.00336 1.363346,-8.14579 4.285688,-11.96307 2.657239,-3.47644 5.453356,-5.62365 8.748087,-6.7143 2.758239,-0.91342 11.222285,-0.99523 22.602359,-0.20451 5.03048,0.34765 9.18991,0.34765 14.21406,0 11.90397,-0.81116 19.85046,-0.72254 22.78542,0.25904 4.61389,1.54054 8.81752,5.685 11.34221,11.20642 1.13613,2.46759 1.35704,3.51735 1.52114,7.32779 0.22722,5.24874 -0.61224,10.82469 -2.20911,14.58062 z M 96.373587,916.46408 c -6.772503,-1.28151 -10.641603,11.2405 -5.447036,17.63443 2.467894,3.03336 4.658067,3.53098 7.397368,1.6905 2.537321,-1.71094 3.913281,-4.90791 3.913281,-9.05238 0,-5.52822 -2.329024,-9.59089 -5.863613,-10.27255 z m 41.108433,0.74983 c -6.77251,-1.28151 -10.64793,11.22687 -5.45335,17.62761 2.4742,3.03337 4.65807,3.53779 7.40367,1.68368 2.53102,-1.70413 3.91329,-4.90791 3.91329,-9.05238 0,-5.50777 -2.32903,-9.58408 -5.86361,-10.25891 z M 119.2663,941.8353 c -0.14516,0.50442 -0.85208,1.25425 -1.56531,1.65643 -1.80516,1.00203 -3.10537,0.6544 -5.01154,-1.22016 -1.18029,-1.15201 -1.71679,-1.75868 -2.07656,-0.55215 -0.33452,1.11792 1.76728,3.36057 3.38942,4.04904 1.48958,0.64075 2.55627,0.66119 4.17206,-0.0681 1.60319,-0.72256 3.0044,-2.66527 3.0044,-3.92634 0,-1.17244 -1.55901,-1.11791 -1.91247,0.0613 z m -2.00082,-3.91951 c 1.02881,-0.98159 1.26235,-2.99929 0.27771,-4.06949 -0.98461,-1.0702 -2.98545,-0.9066 -3.7681,0.29312 -0.90891,1.4042 -0.42289,2.4744 0.22722,3.61277 1.00988,0.84524 2.36691,1.01567 3.26317,0.1636 z"
       id="path5256" />
  </g>
</svg>
