<?xml version="1.0" encoding="UTF-8" standalone="no"?>
<!-- Created with Inkscape (http://www.inkscape.org/) -->

<svg
   xmlns:dc="http://purl.org/dc/elements/1.1/"
   xmlns:cc="http://creativecommons.org/ns#"
   xmlns:rdf="http://www.w3.org/1999/02/22-rdf-syntax-ns#"
   xmlns:svg="http://www.w3.org/2000/svg"
   xmlns="http://www.w3.org/2000/svg"
   xmlns:sodipodi="http://sodipodi.sourceforge.net/DTD/sodipodi-0.dtd"
   xmlns:inkscape="http://www.inkscape.org/namespaces/inkscape"
   width="230"
   height="230.36"
   id="svg4667"
   version="1.1"
   inkscape:version="0.48.2 r9819"
   sodipodi:docname="pinterest.svg">
  <defs
     id="defs4669" />
  <sodipodi:namedview
     id="base"
     pagecolor="#ffffff"
     bordercolor="#666666"
     borderopacity="1.0"
     inkscape:pageopacity="0.0"
     inkscape:pageshadow="2"
     inkscape:zoom="1.8182784"
     inkscape:cx="23.979835"
     inkscape:cy="94.2449"
     inkscape:document-units="px"
     inkscape:current-layer="layer1"
     showgrid="false"
     inkscape:window-width="1366"
     inkscape:window-height="746"
     inkscape:window-x="-8"
     inkscape:window-y="-8"
     inkscape:window-maximized="1" />
  <metadata
     id="metadata4672">
    <rdf:RDF>
      <cc:Work
         rdf:about="">
        <dc:format>image/svg+xml</dc:format>
        <dc:type
           rdf:resource="http://purl.org/dc/dcmitype/StillImage" />
        <dc:title />
      </cc:Work>
    </rdf:RDF>
  </metadata>
  <g
     inkscape:label="Capa 1"
     inkscape:groupmode="layer"
     id="layer1"
     transform="translate(0,-822.00218)">
    <rect
       style="color:#000000;fill:#3b3b3b;fill-opacity:1;fill-rule:nonzero;stroke:none;stroke-width:3;marker:none;visibility:visible;display:inline;overflow:visible;enable-background:accumulate"
       id="rect4336-5"
       width="230.29478"
       height="230.14426"
       x="0.11626182"
       y="822.02649"
       ry="115.07213" />
    <path
       id="pinterest-circle-outline-icon"
       d="m 120.17802,854.32993 c -44.944173,0 -67.606615,32.22445 -67.606615,59.09508 0,16.27015 6.159644,30.74468 19.371471,36.14008 2.166485,0.8855 4.108071,0.031 4.735527,-2.3674 0.437809,-1.6603 1.472054,-5.8495 1.932423,-7.5923 0.633801,-2.373 0.389164,-3.2049 -1.359958,-5.2727 -3.809148,-4.49371 -6.243536,-10.31143 -6.243536,-18.55084 0,-23.90749 17.886018,-45.30797 46.574858,-45.30797 25.4021,0 39.35982,15.52284 39.35982,36.25216 0,27.2753 -12.07112,50.29725 -29.99099,50.29725 -9.89688,0 -17.30439,-8.1844 -14.93063,-18.223 2.844,-11.98438 8.35292,-24.91703 8.35292,-33.56746 0,-7.74309 -4.15742,-14.20166 -12.75921,-14.20166 -10.117553,0 -18.244166,10.46583 -18.244166,24.48489 0,8.92891 3.017429,14.96941 3.017429,14.96941 0,0 -10.353024,43.86552 -12.167006,51.54722 -3.615275,15.29945 -0.544971,34.05541 -0.283413,35.94831 0.151576,1.1224 1.59402,1.3896 2.246856,0.5422 0.933429,-1.2183 12.983405,-16.0939 17.078789,-30.95691 1.160441,-4.2089 6.655261,-26.0034 6.655261,-26.0034 3.28604,6.2696 12.89246,11.7926 23.10589,11.7926 30.41118,0 51.0425,-27.7237 51.0425,-64.83239 7e-4,-28.06068 -23.76649,-54.19317 -59.88822,-54.19317 z"
       inkscape:connector-curvature="0"
       sodipodi:nodetypes="ssccccsssscsssccccccscs"
       style="fill:#ff4c1b;fill-opacity:1" />
  </g>
</svg>
